<svg width="32" height="34" viewBox="0 0 32 34" fill="none" xmlns="http://www.w3.org/2000/svg">
<rect x="12" width="8" height="11" rx="1" fill="#CB010C"/>
<circle cx="16" cy="21" r="12.5" fill="url(#paint0_linear_2165_430)" stroke="#5D5D75"/>
<path d="M20.3857 25.6641V27H12.0098V25.8311L16.2021 21.1641C16.7178 20.5898 17.1162 20.1035 17.3975 19.7051C17.6846 19.3008 17.8838 18.9404 17.9951 18.624C18.1123 18.3018 18.1709 17.9736 18.1709 17.6396C18.1709 17.2178 18.083 16.8369 17.9072 16.4971C17.7373 16.1514 17.4854 15.876 17.1514 15.6709C16.8174 15.4658 16.4131 15.3633 15.9385 15.3633C15.3701 15.3633 14.8955 15.4746 14.5146 15.6973C14.1396 15.9141 13.8584 16.2188 13.6709 16.6113C13.4834 17.0039 13.3896 17.4551 13.3896 17.9648H11.7637C11.7637 17.2441 11.9219 16.585 12.2383 15.9873C12.5547 15.3896 13.0234 14.915 13.6445 14.5635C14.2656 14.2061 15.0303 14.0273 15.9385 14.0273C16.7471 14.0273 17.4385 14.1709 18.0127 14.458C18.5869 14.7393 19.0264 15.1377 19.3311 15.6533C19.6416 16.1631 19.7969 16.7607 19.7969 17.4463C19.7969 17.8213 19.7324 18.2021 19.6035 18.5889C19.4805 18.9697 19.3076 19.3506 19.085 19.7314C18.8682 20.1123 18.6133 20.4873 18.3203 20.8564C18.0332 21.2256 17.7256 21.5889 17.3975 21.9463L13.9697 25.6641H20.3857Z" fill="white"/>
<defs>
<linearGradient id="paint0_linear_2165_430" x1="3" y1="8" x2="29" y2="34" gradientUnits="userSpaceOnUse">
<stop stop-color="#DCDCE4"/>
<stop offset="1" stop-color="#7E7E86"/>
</linearGradient>
</defs>
</svg>
