<svg width="32" height="34" viewBox="0 0 32 34" fill="none" xmlns="http://www.w3.org/2000/svg">
<rect x="12" width="8" height="11" rx="1" fill="#CB010C"/>
<circle cx="16" cy="21" r="13" fill="url(#paint0_linear_2165_402)"/>
<circle cx="16" cy="21" r="12.5" stroke="#953000" stroke-opacity="0.48"/>
<path d="M14.374 19.8018H15.5342C16.1025 19.8018 16.5713 19.708 16.9404 19.5205C17.3154 19.3271 17.5938 19.0664 17.7754 18.7383C17.9629 18.4043 18.0566 18.0293 18.0566 17.6133C18.0566 17.1211 17.9746 16.708 17.8105 16.374C17.6465 16.04 17.4004 15.7881 17.0723 15.6182C16.7441 15.4482 16.3281 15.3633 15.8242 15.3633C15.3672 15.3633 14.9629 15.4541 14.6113 15.6357C14.2656 15.8115 13.9932 16.0635 13.7939 16.3916C13.6006 16.7197 13.5039 17.1064 13.5039 17.5518H11.8779C11.8779 16.9014 12.042 16.3096 12.3701 15.7764C12.6982 15.2432 13.1582 14.8184 13.75 14.502C14.3477 14.1855 15.0391 14.0273 15.8242 14.0273C16.5977 14.0273 17.2744 14.165 17.8545 14.4404C18.4346 14.71 18.8857 15.1143 19.208 15.6533C19.5303 16.1865 19.6914 16.8516 19.6914 17.6484C19.6914 17.9707 19.6152 18.3164 19.4629 18.6855C19.3164 19.0488 19.085 19.3887 18.7686 19.7051C18.458 20.0215 18.0537 20.2822 17.5557 20.4873C17.0576 20.6865 16.46 20.7861 15.7627 20.7861H14.374V19.8018ZM14.374 21.1377V20.1621H15.7627C16.5771 20.1621 17.251 20.2588 17.7842 20.4521C18.3174 20.6455 18.7363 20.9033 19.041 21.2256C19.3516 21.5479 19.5684 21.9023 19.6914 22.2891C19.8203 22.6699 19.8848 23.0508 19.8848 23.4316C19.8848 24.0293 19.7822 24.5596 19.5771 25.0225C19.3779 25.4854 19.0938 25.8779 18.7246 26.2002C18.3613 26.5225 17.9336 26.7656 17.4414 26.9297C16.9492 27.0938 16.4131 27.1758 15.833 27.1758C15.2764 27.1758 14.752 27.0967 14.2598 26.9385C13.7734 26.7803 13.3428 26.5518 12.9678 26.2529C12.5928 25.9482 12.2998 25.5762 12.0889 25.1367C11.8779 24.6914 11.7725 24.1846 11.7725 23.6162H13.3984C13.3984 24.0615 13.4951 24.4512 13.6885 24.7852C13.8877 25.1191 14.1689 25.3799 14.5322 25.5674C14.9014 25.749 15.335 25.8398 15.833 25.8398C16.3311 25.8398 16.7588 25.7549 17.1162 25.585C17.4795 25.4092 17.7578 25.1455 17.9512 24.7939C18.1504 24.4424 18.25 24 18.25 23.4668C18.25 22.9336 18.1387 22.4971 17.916 22.1572C17.6934 21.8115 17.377 21.5566 16.9668 21.3926C16.5625 21.2227 16.085 21.1377 15.5342 21.1377H14.374Z" fill="white"/>
<defs>
<linearGradient id="paint0_linear_2165_402" x1="3" y1="8" x2="29" y2="34" gradientUnits="userSpaceOnUse">
<stop stop-color="#F4B98D"/>
<stop offset="1" stop-color="#9A5A3F"/>
</linearGradient>
</defs>
</svg>
