<svg width="36" height="36" viewBox="0 0 36 36" fill="none" xmlns="http://www.w3.org/2000/svg">
<path fill-rule="evenodd" clip-rule="evenodd" d="M10.5 9C10.5 4.85786 13.8579 1.5 18 1.5C22.1421 1.5 25.5 4.85786 25.5 9H30C30.8284 9 31.5 9.67157 31.5 10.5C31.5 11.3284 30.8284 12 30 12H28.5159C28.5576 12.0005 28.5996 12.0027 28.6419 12.0067C29.4666 12.0851 30.0716 12.8172 29.9933 13.6419C29.8508 15.1415 29.5941 16.9859 29.2664 19.3408L28.868 22.2035C28.8573 22.2805 28.8467 22.3566 28.8362 22.4319C28.439 25.2878 28.2048 26.9711 27.6954 28.3578C26.7488 30.9342 25.0446 33.0433 22.8077 33.9872C21.587 34.5023 20.1987 34.5014 18.2929 34.5001C18.1966 34.5001 18.099 34.5 18 34.5C17.901 34.5 17.8034 34.5001 17.7071 34.5001C15.8013 34.5014 14.413 34.5023 13.1923 33.9872C10.9554 33.0433 9.25124 30.9342 8.30465 28.3578C7.79516 26.9711 7.56103 25.2878 7.16379 22.4319C7.15332 22.3566 7.14273 22.2805 7.13202 22.2035L6.73362 19.3408C6.40588 16.9858 6.14921 15.1415 6.00673 13.6419C5.92837 12.8172 6.53341 12.0851 7.35812 12.0067C7.40038 12.0027 7.4424 12.0005 7.48409 12H6C5.17157 12 4.5 11.3284 4.5 10.5C4.5 9.67157 5.17157 9 6 9H10.5ZM13.5 9H22.5C22.5 6.51472 20.4853 4.5 18 4.5C15.5147 4.5 13.5 6.51472 13.5 9ZM7.51944 12C8.27628 12.0089 8.92007 12.5876 8.99327 13.3581C9.12885 14.7851 9.37625 16.5652 9.70988 18.9625L10.1034 21.79C10.5419 24.9409 10.7367 26.2783 11.1206 27.3232C11.8698 29.3622 13.0969 30.6908 14.3587 31.2233C14.9472 31.4716 15.6726 31.5 18 31.5C20.3274 31.5 21.0528 31.4716 21.6413 31.2233C22.9031 30.6908 24.1302 29.3622 24.8794 27.3232C25.2633 26.2783 25.4581 24.9409 25.8966 21.79L26.2901 18.9625C26.6237 16.5652 26.8711 14.7851 27.0067 13.3581C27.0799 12.5876 27.7237 12.0089 28.4806 12H7.51944ZM15 13.5C15.8284 13.5 16.5 14.1716 16.5 15V27C16.5 27.8284 15.8284 28.5 15 28.5C14.1716 28.5 13.5 27.8284 13.5 27V15C13.5 14.1716 14.1716 13.5 15 13.5ZM21 13.5C21.8284 13.5 22.5 14.1716 22.5 15V27C22.5 27.8284 21.8284 28.5 21 28.5C20.1716 28.5 19.5 27.8284 19.5 27V15C19.5 14.1716 20.1716 13.5 21 13.5Z" fill="#F70115"/>
</svg>
