<svg width="100" height="25" viewBox="0 0 100 25" fill="none" xmlns="http://www.w3.org/2000/svg">
<path fill-rule="evenodd" clip-rule="evenodd" d="M11.036 14.2081L4.80789 15.9636C4.84144 16.2729 4.9197 16.627 5.06506 16.8581C5.35578 17.3277 5.85896 17.7974 5.99685 17.9204L11.0397 21.5767V14.2081H11.036ZM4.79297 2.51587V6.08651L11.036 4.29746V2.51587H4.79297Z" fill="#0075BF"/>
<path fill-rule="evenodd" clip-rule="evenodd" d="M11.0359 14.2081V21.5767L16.0788 17.9204C16.213 17.8011 16.7161 17.3315 17.0069 16.8581C17.2603 16.4481 17.3013 15.7139 17.279 15.4455V15.4306L17.2752 15.3262V12.4488L11.0359 14.2081ZM11.0359 2.51587V4.29746L17.2491 2.51587H11.0359Z" fill="#E40521"/>
<path fill-rule="evenodd" clip-rule="evenodd" d="M3.95456 6.30269C8.68809 4.95345 13.3918 3.62284 18.1179 2.27732V1.67724H3.95456V6.30269ZM2.65377 17.6781C2.72832 17.8495 2.81403 18.021 2.91468 18.185C3.3992 18.9714 4.13719 19.6498 4.34965 19.8361L11.0325 24.6927L17.7154 19.8399C17.9278 19.6535 18.6658 18.9789 19.1541 18.1887C19.866 17.037 19.8138 15.5909 19.7951 15.2927V15.2778V12.8514L22.08 12.2066V1.14798C21.3159 1.36788 20.5555 1.58406 19.7951 1.80024V0H2.27358V6.78722C1.51697 7.0034 0.75662 7.21959 0 7.43948C0.0111816 11.0996 0.0186363 14.7597 0.0298179 18.4235L2.65377 17.6781ZM18.1179 13.321V15.3113L18.1216 15.3821C18.1477 15.699 18.1254 16.6606 17.7265 17.3054C17.3501 17.9129 16.7314 18.472 16.6084 18.5801L11.0362 22.6203L5.46406 18.5801C5.34107 18.472 4.71863 17.9092 4.34591 17.3054C4.32728 17.2756 4.31236 17.2495 4.29373 17.2197L18.1179 13.321ZM20.5778 11.066V3.1383C14.223 4.95717 7.86066 6.74622 1.50579 8.56883C1.51324 11.1928 1.5207 13.813 1.52815 16.4369C7.87558 14.6441 14.2267 12.8551 20.5778 11.066Z" fill="white"/>
<path fill-rule="evenodd" clip-rule="evenodd" d="M17.8345 5.00934L14.9422 5.83677L13.7644 7.25311V11.0958L14.9422 11.8338L17.8345 11.0064L19.0123 9.59005V5.74732L17.8345 5.00934ZM15.6355 10.2274L15.3373 10.0448V7.39847L15.6355 7.04438L17.1375 6.61575L17.4357 6.79839V9.44469L17.1375 9.79878L15.6355 10.2274ZM8.27051 9.15771L9.89931 8.69181V13.28L11.4722 12.829V8.24081L13.101 7.77492V6.36976L8.2668 7.75629V9.15771H8.27051ZM3.20898 15.1958L4.78187 14.7448V10.1566L7.48408 9.38133V7.97619L3.20898 9.20244V15.1958Z" fill="white"/>
<path d="M32.7986 4.02349H31.9787V5.72681H32.7986L32.9962 5.52927V4.21731L32.7986 4.02349ZM30.5399 2.90907V2.32016H31.9823V2.90907H33.6857L34.4385 3.59859V6.15544L33.6857 6.84498H31.9823V7.43387H30.5399V6.84498H28.8366L28.0837 6.15544V3.59859L28.8366 2.90907H30.5399ZM30.5399 4.02349H29.72L29.5224 4.22103V5.533L29.72 5.73055H30.5399V4.02349ZM35.1916 2.64443H39.3883V3.75887H36.6339V4.41485H38.6653V5.46219H36.6339V6.11818H39.4518V7.23262H35.1916V2.64443ZM39.6156 6.11818H39.9436L40.4693 5.62618L40.7301 2.64443H44.6623V6.11818H45.2847V8.21659H43.8424V7.23262H41.058V8.21659H39.6156V6.11818ZM41.8782 5.76036L41.4831 6.12189H43.2199V3.76258H42.0718L41.8782 5.76036ZM45.8774 2.64443H50.0704V3.75887H47.3161V4.41485H49.3474V5.46219H47.3161V6.11818H50.1339V7.23262H45.8737V2.64443H45.8774ZM54.5282 6.02127H52.2024V7.23262H50.76V2.64443H54.5282L55.3818 3.43086V5.23484L54.5282 6.02127ZM53.9392 3.95641L53.7417 3.75887H52.2024V4.90683H53.7417L53.9392 4.70929V3.95641ZM59.6308 7.23262L59.2506 6.31572H57.3497L56.9695 7.23262H55.4487L57.3646 2.64443H59.2318L61.1513 7.23262H59.6308ZM58.3 3.91167L57.8082 5.20129H58.792L58.3 3.91167ZM66.1309 2.64443V6.11818H66.7533V8.21659H65.3109V7.23262H61.6062V2.64443H63.0486V6.11818H64.6885V2.64443H66.1309ZM72.0647 7.23262H70.6223V4.74284L68.6952 7.23262H67.3459V2.64443H68.7885V5.13421L70.7229 2.64443H72.0683V7.23262H72.0647ZM73.8015 5.65973L73.015 4.94038V3.4346L73.8687 2.64816H77.6032V7.23633H76.1608V5.89082H75.2104L74.2601 7.23633H72.6199L73.8015 5.65973ZM74.655 3.75887L74.4574 3.95641V4.57885L74.655 4.77639H76.1608V3.75887H74.655Z" fill="white"/>
<path d="M31.4568 14.0795H30.4728L29.5224 12.7041V15.0001H28.0798V10.4119H29.5224L30.9648 12.5103L32.4072 10.4119H33.8496V15.0001H32.4072V12.7041L31.4568 14.0795ZM36.2088 13.2595V14.9964H34.7664V10.4082H36.2088V12.145H37.9794V10.4082H39.4217V14.9964H37.9794V13.2595H36.2088ZM41.8779 11.4555L41.6804 11.6531V13.7515L41.8779 13.949H43.4844L43.6819 13.7515V11.6531L43.4844 11.4555H41.8779ZM41.1586 10.3411H44.2074L45.1243 11.1946V14.2099L44.2074 15.0634H41.1586L40.2417 14.2099V11.1946L41.1586 10.3411ZM45.9443 10.4082H49.91V11.5226H47.3869V14.9964H45.9443V10.4082ZM51.8407 11.4555L51.6432 11.6531V13.7515L51.8407 13.949H53.4472L53.6447 13.7515V11.6531L53.4472 11.4555H51.8407ZM51.1214 10.3411H54.1702L55.0871 11.1946V14.2099L54.1702 15.0634H51.1214L50.2045 14.2099V11.1946L51.1214 10.3411ZM59.7722 14.9964H55.9034V10.4082H60.2307V11.5226H57.3458V12.0481H59.7722L60.6258 12.8346V14.2099L59.7722 14.9964ZM58.9859 13.8819L59.1834 13.6844V13.2893L58.9859 13.0918H57.3458V13.8782H58.9859V13.8819ZM62.8547 11.4555L62.6571 11.6531V13.7515L62.8547 13.949H64.4611L64.6587 13.7515V11.6531L64.4611 11.4555H62.8547ZM62.1317 10.3411H65.1805L66.0974 11.1946V14.2099L65.1805 15.0634H62.1317L61.2148 14.2099V11.1946L62.1317 10.3411ZM70.6855 13.785H68.3597V14.9964H66.9173V10.4082H70.6855L71.539 11.1946V12.9986L70.6855 13.785ZM70.0966 11.7202L69.899 11.5226H68.3597V12.6706H69.899L70.0966 12.4731V11.7202ZM75.1767 13.8819L75.3743 13.6844V13.1589L75.1767 12.9613H73.7009V13.8782H75.1767V13.8819ZM73.7046 11.8506H75.9669L76.8205 12.637V14.2099L75.9669 14.9964H72.2622V10.4082H73.7046V11.8506ZM78.356 13.4235L77.5697 12.7041V11.1983L78.4231 10.4119H82.1578V15.0001H80.7154V13.6546H79.7649L78.8145 15.0001H77.1746L78.356 13.4235ZM79.2096 11.5226L79.0121 11.7202V12.3426L79.2096 12.5401H80.7154V11.5226H79.2096Z" fill="white"/>
<path d="M96.407 11.4555L96.2095 11.6531V13.7515L96.407 13.949H98.0134L98.211 13.7515V11.6531L98.0134 11.4555H96.407ZM95.6876 10.3411H98.7365L99.6534 11.1946V14.2099L98.7365 15.0634H95.6876L94.7708 14.2099V11.1946L95.6876 10.3411Z" fill="white"/>
<path d="M85.1587 10.4082H89.1244V11.5226H86.5974V14.9964H85.1587V10.4082Z" fill="white"/>
<path d="M91.2488 10.4157H92.6951H94.3873V11.545H92.71V15.0672H92.6951H91.2488H91.2303V11.545H89.5083V10.4157H91.2488Z" fill="white"/>
<path d="M31.4568 20.9301H28.9967V22.3091H28.0798V17.7172H31.4568L32.3102 18.5037V20.1436L31.4568 20.9301ZM31.3933 18.8317L31.0319 18.5037H29.0006V20.1436H31.0319L31.3933 19.8156V18.8317Z" fill="white"/>
<path d="M33.9848 17.6501H36.6422L37.5591 18.5037V21.5189L36.6422 22.3725H33.9848L33.0679 21.5189V18.5037L33.9848 17.6501ZM34.4096 18.4366L33.9848 18.8317V21.1946L34.4096 21.5897H36.2136L36.6385 21.1946V18.8354L36.2136 18.4403H34.4096V18.4366Z" fill="white"/>
<path d="M42.4782 21.5228V22.3091H39.3957L38.4788 21.4556V18.5708L39.3957 17.7172H42.4782V18.5037H39.8205L39.3957 18.8987V21.1277L39.8205 21.5228H42.4782Z" fill="white"/>
<path d="M47.2304 21.5228V22.3091H44.1479L43.231 21.4556V18.5708L44.1479 17.7172H47.2304V18.5037H44.5729L44.1479 18.8987V21.1277L44.5729 21.5228H47.2304Z" fill="white"/>
<path d="M51.4945 22.3091V19.1596L48.9377 22.3091H48.0842V17.7172H49.0011V20.8667L51.5579 17.7172H52.4114V22.3091H51.4945Z" fill="white"/>
<path d="M56.9397 22.3091V19.1596L54.3829 22.3091H53.5293V17.7172H54.4462V20.8667L57.0032 17.7172H57.8566V22.3091H56.9397Z" fill="white"/>
</svg>
