<svg width="24" height="24" viewBox="0 0 24 24" fill="none" xmlns="http://www.w3.org/2000/svg">
<path d="M14.8585 3.97649C15.2173 3.76938 15.3402 3.31069 15.1331 2.95197C14.926 2.59325 14.4673 2.47034 14.1085 2.67745L11.6591 4.09166C11.3003 4.29877 11.1774 4.75746 11.3845 5.11618L12.7988 7.56567C13.0059 7.92439 13.4646 8.0473 13.8233 7.84019C14.182 7.63308 14.3049 7.17439 14.0978 6.81567L13.5836 5.92507C14.4515 6.11934 15.2808 6.47268 16.0279 6.97185C17.2201 7.76849 18.1494 8.90079 18.6981 10.2256C19.2469 11.5503 19.3904 13.0081 19.1107 14.4144C18.8309 15.8208 18.1405 17.1126 17.1265 18.1265C16.1126 19.1405 14.8208 19.831 13.4144 20.1107C12.008 20.3904 10.5503 20.2469 9.22554 19.6981C7.90077 19.1494 6.76848 18.2201 5.97184 17.0279C5.1752 15.8356 4.75 14.4339 4.75 13C4.75 12.5858 4.41421 12.25 4 12.25C3.58579 12.25 3.25 12.5858 3.25 13C3.25 14.7306 3.76317 16.4223 4.72463 17.8612C5.68609 19.3002 7.05266 20.4217 8.65151 21.0839C10.2504 21.7462 12.0097 21.9195 13.707 21.5819C15.4044 21.2443 16.9635 20.4109 18.1872 19.1872C19.4109 17.9635 20.2442 16.4044 20.5819 14.7071C20.9195 13.0097 20.7462 11.2504 20.0839 9.65153C19.4217 8.05267 18.3002 6.68611 16.8612 5.72465C15.9818 5.13699 15.0078 4.71681 13.9883 4.47891L14.8585 3.97649Z" fill="white"/>
<path d="M11 9.25C11.4142 9.25 11.75 9.58579 11.75 10V14.25H15C15.4142 14.25 15.75 14.5858 15.75 15C15.75 15.4142 15.4142 15.75 15 15.75H11C10.5858 15.75 10.25 15.4142 10.25 15V10C10.25 9.58579 10.5858 9.25 11 9.25Z" fill="white"/>
</svg>
