<?xml version="1.0" encoding="UTF-8"?>
<!DOCTYPE svg PUBLIC "-//W3C//DTD SVG 1.1//EN" "http://www.w3.org/Graphics/SVG/1.1/DTD/svg11.dtd">
<!-- Creator: CorelDRAW -->
<svg xmlns="http://www.w3.org/2000/svg" xml:space="preserve" width="400px" height="650px" version="1.1" style="shape-rendering:geometricPrecision; text-rendering:geometricPrecision; image-rendering:optimizeQuality; fill-rule:evenodd; clip-rule:evenodd"
viewBox="0 0 400 650"
 xmlns:xlink="http://www.w3.org/1999/xlink"
 xmlns:xodm="http://www.corel.com/coreldraw/odm/2003">
 <defs>
  <style type="text/css">
   <![CDATA[
    .fil4 {fill:#0078BF}
    .fil5 {fill:#011C85}
    .fil0 {fill:#E41D2D}
    .fil1 {fill:white}
    .fil2 {fill:#E41D2D;fill-rule:nonzero}
    .fil6 {fill:white;fill-rule:nonzero}
    .fil3 {fill:white;fill-rule:nonzero}
   ]]>
  </style>
 </defs>
 <g id="Слой_x0020_1">
  <metadata id="CorelCorpID_0Corel-Layer"/>
  <g id="_105553254268384">
   <path class="fil0" d="M191.88 449.26l3.73 97.65 0 10.26 0 0 72.25 -52.38c5.08,-3.7 9.77,-7.9 13.87,-12.66 1.97,-2.27 3.92,-4.79 5.49,-7.31 3.15,-5.12 4.14,-13.46 4.23,-18.64l0 -1.53c-0.01,-0.57 -0.03,-1.08 -0.06,-1.51l-0.1 -1.82 0 -44.13 -46.82 13.2 36.25 -6.15 -3.44 5.64 5.58 -1.57 -90.98 20.71 0 0.24z"/>
   <path class="fil1" d="M87.06 335.3l-0.03 -83.31 217.15 0 0 21.58 25.76 -7.35 0 -39.99 -268.67 0 -0.03 116.44 25.82 -7.37zm217.12 83.23l0 42.51 0.04 1.09c0.39,4.85 0.06,19.59 -6.04,29.46 -5.76,9.31 -15.27,17.9 -17.14,19.55l-85.43 61.94 -85.44 -61.94c-1.86,-1.65 -11.41,-10.3 -17.13,-19.55 -2.52,-4.07 -4.06,-8.98 -4.97,-13.67l-24.89 6.85c1.45,6.66 3.9,13.82 7.94,20.36 7.44,12.06 18.72,22.44 22,25.33l102.49 74.45 102.46 -74.43c3.27,-2.88 14.54,-13.23 22.04,-25.35 10.89,-17.65 10.13,-39.85 9.84,-44.42l-0.01 -0.22 0 -49.06 -25.76 7.1z"/>
   <path class="fil1" d="M299.68 303.11l-44.34 12.71 -18.06 21.69 0 58.91 18.06 11.35 44.34 -12.72 18.05 -21.7 0 -58.9 -18.05 -11.34zm-33.68 80.03l-4.58 -2.81 0 -40.56 4.58 -5.44 23.02 -6.61 4.57 2.81 0 40.58 -4.57 5.44 -23.02 6.59zm-112.97 -16.42l25 -7.17 0 70.39 24.14 -6.94 0 -70.37 25.01 -7.17 0 -21.56 -74.15 21.26 0 21.56zm-77.57 92.62l24.14 -6.92 0 -70.38 41.44 -11.88 0 -21.57 -65.58 18.81 0 91.94z"/>
   <polygon class="fil2" points="183.83,300.56 295.67,282.72 292.8,264.87 183.83,264.87 "/>
   <polygon class="fil3" points="96.44,206.82 96.44,181.51 76.85,206.82 63.13,206.82 63.13,160.2 77.79,160.2 77.79,185.51 97.44,160.2 111.09,160.2 111.09,206.82 "/>
   <polygon class="fil3" points="173.63,160.19 173.63,171.52 147.99,171.52 147.99,206.82 133.34,206.82 133.34,160.19 "/>
   <path class="fil3" d="M224.41 171.52l-15.65 0 0 11.65 15.65 0 2 -1.99 0 -7.67 -2 -1.99zm-15.65 22.98l0 12.32 -14.65 0 0 -46.63 38.29 0 8.66 8 0 18.31 -8.66 8 -23.64 0z"/>
   <path class="fil3" d="M329.94 206.82l-14.65 0 0 -46.62 14.65 0 0 46.62zm-36.63 -13.32l0 -5.33 -2 -2 -14.32 0 0 9.33 14.32 0 2 -2zm-16.32 -33.3l0 14.65 22.31 0 8.66 7.99 0 15.99 -8.66 7.99 -36.96 0 0 -46.62 14.65 0z"/>
   <path class="fil4" d="M195.6 444.16l-95.52 26.91c0.51,4.77 1.71,10.17 3.91,13.75 4.44,7.19 12.19,14.4 14.26,16.27l77.35 56.08 0 -113.01zm-95.68 -179.29l-0.01 54.76 95.69 -27.44 0 -27.32 -95.68 0z"/>
   <path class="fil1" d="M364.8 413.45c-112.71,31.76 -225.41,63.53 -338.11,95.29 -0.19,-56.17 -0.29,-112.31 -0.48,-168.4 113.57,-32.6 225.36,-63.99 338.59,-96.46l0 169.57zm-23.05 -17.45l0 -121.56c-97.45,27.86 -195,55.34 -292.45,83.25 0.13,40.21 0.22,80.43 0.33,120.64 97.38,-27.44 194.76,-54.89 292.12,-82.33z"/>
   <polygon class="fil4" points="41.73,112.34 244.1,51.28 244.1,94.63 41.73,155.68 "/>
   <polygon class="fil0" points="110.79,125.36 317.24,61.28 317.24,91.29 110.79,155.37 "/>
   <polygon class="fil0" points="17.97,96.06 134.87,60.31 134.41,90.67 17.5,126.43 "/>
   <polygon class="fil5" points="163.33,73.34 252.88,45.09 252.88,54.71 163.33,82.95 "/>
   <polygon class="fil5" points="26.66,150.8 151.48,111.93 151.48,125.4 26.66,164.28 "/>
   <polygon class="fil4" points="189.55,125.14 351.09,75.69 351,102.6 189.46,152.05 "/>
   <polygon class="fil5" points="242.92,135.5 382.5,90.97 382.5,104.45 242.92,148.98 "/>
   <polygon class="fil0" points="294.3,131.16 358.95,110.92 358.93,133.6 294.29,153.84 "/>
   <path class="fil6" d="M55.65 108.35l0 11.55 -9.6 0 0 -30.52 9.6 0 0 11.55 11.77 0 0 -11.55 9.58 0 0 30.52 -9.58 0 0 -11.55 -11.77 0zm52.22 11.55l-2.53 -6.11 -12.64 0 -2.53 6.11 -10.11 0 12.73 -30.52 12.42 0 12.77 30.52 -10.11 0zm-8.85 -22.1l-3.27 8.58 6.54 0 -3.27 -8.58zm47.08 14.03l-15.48 0 0 8.07 -9.59 0 0 -30.52 25.07 0 5.66 5.23 0 11.99 -5.66 5.23zm-3.93 -13.73l-1.3 -1.31 -10.25 0 0 7.63 10.25 0 1.3 -1.31 0 -5.01zm24.63 -1.74l-1.31 1.3 0 13.95 1.31 1.31 10.68 0 1.31 -1.31 0 -13.95 -1.31 -1.3 -10.68 0zm-4.79 -7.41l20.27 0 6.1 5.66 0 20.06 -6.1 5.66 -20.27 0 -6.11 -5.66 0 -20.06 6.11 -5.66zm28.33 23.54l2.18 0 3.49 -3.27 1.74 -19.84 26.16 0 0 23.11 4.14 0 0 13.94 -9.59 0 0 -6.53 -18.53 0 0 6.53 -9.59 0 0 -13.94zm15.04 -2.4l-2.62 2.4 11.56 0 0 -15.7 -7.63 0 -1.31 13.3zm36.18 -1.74l0 11.55 -9.59 0 0 -30.52 9.59 0 0 11.55 11.77 0 0 -11.55 9.59 0 0 30.52 -9.59 0 0 -11.55 -11.77 0zm71.71 -18.97l0 30.52 -9.59 0 0 -30.52 9.59 0zm-44.25 0l9.59 0 0 9.59 14.61 0 5.66 5.23 0 10.47 -5.66 5.23 -24.2 0 0 -30.52zm18.97 23.11l1.3 -1.31 0 -3.49 -1.3 -1.31 -9.38 0 0 6.11 9.38 0zm31.38 -23.11l27.9 0 0 7.41 -18.31 0 0 4.36 13.51 0 0 6.98 -13.51 0 0 4.36 18.75 0 0 7.41 -28.34 0 0 -30.52z"/>
  </g>
 </g>
</svg>
