<svg width="43" height="43" viewBox="0 0 43 43" fill="none" xmlns="http://www.w3.org/2000/svg">
<path d="M32.7874 15.3904L34.4178 13.7779C34.7552 13.4405 34.9447 12.983 34.9447 12.5058C34.9447 12.0287 34.7552 11.5711 34.4178 11.2338C34.0804 10.8964 33.6228 10.7068 33.1457 10.7068C32.6686 10.7068 32.211 10.8964 31.8736 11.2338L30.2611 12.8642C27.7502 10.9217 24.6655 9.86785 21.4909 9.86785C18.3164 9.86785 15.2316 10.9217 12.7207 12.8642L11.0903 11.2158C10.7505 10.8785 10.2907 10.6899 9.81188 10.6915C9.33308 10.6932 8.87455 10.885 8.53718 11.2248C8.1998 11.5645 8.01121 12.0244 8.01289 12.5032C8.01457 12.982 8.20638 13.4405 8.54613 13.7779L10.1945 15.4083C8.22904 17.9123 7.16259 21.0043 7.16655 24.1875C7.1607 26.4726 7.7013 28.726 8.74326 30.7598C9.78522 32.7936 11.2983 34.5487 13.1564 35.8789C15.0145 37.2091 17.1637 38.0757 19.4248 38.4065C21.6859 38.7374 23.9933 38.5228 26.1545 37.7807C28.3158 37.0386 30.2684 35.7905 31.8493 34.1405C33.4302 32.4905 34.5938 30.4864 35.2428 28.2954C35.8919 26.1044 36.0077 23.7899 35.5806 21.545C35.1534 19.3002 34.1957 17.19 32.7874 15.3904ZM21.4999 34.9375C19.3737 34.9375 17.2953 34.307 15.5275 33.1258C13.7597 31.9446 12.3818 30.2657 11.5682 28.3014C10.7545 26.337 10.5417 24.1756 10.9564 22.0903C11.3712 20.005 12.3951 18.0895 13.8985 16.5861C15.4019 15.0827 17.3174 14.0589 19.4027 13.6441C21.488 13.2293 23.6494 13.4422 25.6137 14.2558C27.578 15.0694 29.257 16.4473 30.4382 18.2151C31.6194 19.983 32.2499 22.0614 32.2499 24.1875C32.2499 27.0386 31.1173 29.7729 29.1013 31.7889C27.0853 33.8049 24.351 34.9375 21.4999 34.9375ZM17.9166 8.06251H25.0832C25.5584 8.06251 26.0141 7.87374 26.3501 7.53774C26.6861 7.20174 26.8749 6.74602 26.8749 6.27084C26.8749 5.79566 26.6861 5.33994 26.3501 5.00394C26.0141 4.66794 25.5584 4.47917 25.0832 4.47917H17.9166C17.4414 4.47917 16.9857 4.66794 16.6497 5.00394C16.3136 5.33994 16.1249 5.79566 16.1249 6.27084C16.1249 6.74602 16.3136 7.20174 16.6497 7.53774C16.9857 7.87374 17.4414 8.06251 17.9166 8.06251ZM23.2916 18.8125C23.2916 18.3373 23.1028 17.8816 22.7668 17.5456C22.4308 17.2096 21.9751 17.0208 21.4999 17.0208C21.0247 17.0208 20.569 17.2096 20.233 17.5456C19.897 17.8816 19.7082 18.3373 19.7082 18.8125V22.1988C19.3025 22.5616 19.0166 23.0391 18.8882 23.568C18.7598 24.097 18.7951 24.6524 18.9893 25.1609C19.1835 25.6693 19.5275 26.1068 19.9758 26.4155C20.4241 26.7241 20.9556 26.8894 21.4999 26.8894C22.0442 26.8894 22.5756 26.7241 23.0239 26.4155C23.4722 26.1068 23.8163 25.6693 24.0105 25.1609C24.2047 24.6524 24.2399 24.097 24.1116 23.568C23.9832 23.0391 23.6972 22.5616 23.2916 22.1988V18.8125Z" fill="white"/>
</svg>
