<svg width="24" height="24" viewBox="0 0 24 24" fill="none" xmlns="http://www.w3.org/2000/svg">
<path fill-rule="evenodd" clip-rule="evenodd" d="M6.4443 3.6853C8.08879 2.58649 10.0222 2 12 2C12 2 13 2.05116 13 3C13 3.94884 12 4 12 4C11.4785 3.99999 10.9557 4.05099 10.4393 4.15372C8.88743 4.4624 7.46197 5.22433 6.34315 6.34315C5.22433 7.46197 4.4624 8.88743 4.15372 10.4393C3.84504 11.9911 4.00346 13.5997 4.60896 15.0615C5.21447 16.5233 6.23985 17.7727 7.55544 18.6518C8.87103 19.5308 10.4178 20 12 20C14.121 19.9976 16.1544 19.1539 17.6542 17.6542C19.1539 16.1544 19.9976 14.121 20 12C20 10.4177 19.5308 8.87103 18.6518 7.55544C18.6518 7.55544 18.2161 6.81653 18.9532 6.29289C19.6903 5.76926 20.3905 6.56726 20.3905 6.56726C21.431 8.17311 21.9978 10.0572 22 12C22 13.9778 21.4135 15.9112 20.3147 17.5557C19.2159 19.2002 17.6541 20.4819 15.8268 21.2388C13.9996 21.9957 11.9889 22.1937 10.0491 21.8079C8.10929 21.422 6.32746 20.4696 4.92893 19.0711C3.53041 17.6725 2.578 15.8907 2.19215 13.9509C1.8063 12.0111 2.00433 10.0004 2.76121 8.17317C3.51808 6.3459 4.79981 4.78412 6.4443 3.6853Z" fill="white"/>
<path d="M15 8C15.3996 7.61881 16.0326 7.63376 16.4138 8.0334C16.795 8.43304 16.7801 9.06603 16.3804 9.44722L13.1042 12.5885C12.7045 12.9697 12.0716 12.9547 11.6904 12.5551C11.3092 12.1554 11.3241 11.5224 11.7238 11.1413L15 8Z" fill="white"/>
</svg>
